<svg width="107" height="107" fill="none" xmlns="http://www.w3.org/2000/svg"><g clip-path="url(#clip0)" fill="#000"><path d="M95.854 17.833H11.146C5.002 17.833 0 22.836 0 28.98v49.042c0 6.144 5.002 11.146 11.146 11.146h84.708c6.144 0 11.146-5.002 11.146-11.146V28.979c0-6.143-5.002-11.146-11.146-11.146zm6.688 60.188c0 3.687-3 6.687-6.688 6.687H11.146c-3.687 0-6.688-3-6.688-6.687V28.979c0-3.687 3-6.687 6.688-6.687h84.708c3.687 0 6.688 3 6.688 6.687v49.042z"/><path d="M104.771 31.208H2.229A2.23 2.23 0 000 33.438v13.374a2.23 2.23 0 002.23 2.23h102.54a2.23 2.23 0 002.229-2.23V33.438a2.23 2.23 0 00-2.229-2.23zm-2.229 13.375H4.458v-8.916h98.084v8.916zM42.354 62.417h-26.75a2.23 2.23 0 000 4.458h26.75a2.23 2.23 0 000-4.458zm0 8.916h-26.75a2.23 2.23 0 000 4.459h26.75a2.23 2.23 0 000-4.459zm44.583-13.375H82.48c-3.687 0-6.688 3-6.688 6.688v4.458c0 3.687 3 6.688 6.688 6.688h4.458c3.687 0 6.688-3 6.688-6.688v-4.458c0-3.687-3-6.688-6.688-6.688zm2.23 11.146a2.23 2.23 0 01-2.23 2.23H82.48a2.23 2.23 0 01-2.23-2.23v-4.458c0-1.23 1-2.23 2.23-2.23h4.458c1.23 0 2.23 1 2.23 2.23v4.458z"/></g><defs><clipPath id="clip0"><path fill="#fff" d="M0 0h107v107H0z"/></clipPath></defs></svg>