<svg width="216" height="213" fill="none" xmlns="http://www.w3.org/2000/svg"><path d="M170.609 51.753a3.161 3.161 0 004.354 1.037l17.152-10.55a3.163 3.163 0 10-3.318-5.39l-17.15 10.55a3.164 3.164 0 00-1.038 4.353zm42.533 21.023l-25.144-2.442a3.164 3.164 0 10-.611 6.298l25.142 2.442a3.164 3.164 0 10.613-6.298zm-55.37-43.12c.375.147.764.218 1.145.218a3.164 3.164 0 002.95-2.019l9.157-23.544a3.164 3.164 0 00-5.896-2.294l-9.159 23.544a3.163 3.163 0 001.803 4.095zm-22.348-17.439c-2.126-3.442-6.655-4.517-10.099-2.39l-3.785 2.334a7.28 7.28 0 00-3.288 4.554 7.29 7.29 0 00.895 5.545l2.177 3.526L71.57 87.38l-10.507 6.483a3.164 3.164 0 003.324 5.386l8.274-5.106 16.126 26.135a12.936 12.936 0 00-6.765 1.416c-.038.018-.074.038-.112.058-.284.15-.566.306-.84.476l-9.462 5.866a16.69 16.69 0 00-2.865 2.258 16.63 16.63 0 00-2.72 3.461l-2.335 3.52-1.717 2.584-.044-.015c-.027-.011-.051-.025-.078-.036a5.012 5.012 0 01-.392-.196l-.08-.045a4.663 4.663 0 01-.408-.272c-.028-.019-.054-.041-.08-.062a4.561 4.561 0 01-.347-.297c-.013-.013-.028-.025-.04-.038a4.637 4.637 0 01-.339-.369l-.067-.086a4.64 4.64 0 01-.297-.42l-13.673-22.16a4.565 4.565 0 01-.562-3.475 4.57 4.57 0 012.06-2.855l4.094-2.524a3.165 3.165 0 00-3.323-5.386l-4.093 2.525a10.86 10.86 0 00-4.896 6.781 10.88 10.88 0 00.11 5.471l-3.044 1.879c-4.072 2.513-5.34 7.871-2.828 11.944l7.723 12.517a8.626 8.626 0 005.385 3.887 8.612 8.612 0 006.557-1.06l3.05-1.88a10.901 10.901 0 002.08 1.49l-8.785 13.233-2.071 1.414a3.83 3.83 0 00-1.404-.401 3.805 3.805 0 00-2.787.884l-5.451 4.588a3.849 3.849 0 00-4.422.197L2.828 189.377A7.391 7.391 0 000 195.212v9.857c0 4.098 3.335 7.433 7.434 7.433H57.64a7.397 7.397 0 005.796-2.778l4.163-5.179a3.838 3.838 0 00.928-2.939l5.601-4.715a3.788 3.788 0 001.162-1.71l12.911 2.646c.192.04.385.061.579.065.377.006.753.011 1.129.011 3.06 0 6.1-.31 9.296-2.241l13.007-7.747a10.254 10.254 0 006.02-1.5l10.45-6.387c4.86-2.97 6.399-9.341 3.429-14.2a10.24 10.24 0 00-4.141-3.82c1.64-3.143 1.645-7.047-.335-10.287a10.365 10.365 0 00-6.367-4.678 10.4 10.4 0 00-1.284-7.658 10.36 10.36 0 00-6.027-4.582 10.406 10.406 0 00-2.566-9.858l62.695-13.646 2.177 3.526a7.34 7.34 0 006.257 3.484 7.288 7.288 0 003.842-1.091l3.785-2.335a7.295 7.295 0 003.288-4.555 7.293 7.293 0 00-.897-5.545l-57.114-92.566zM49.989 140.24a2.34 2.34 0 01-1.777.287 2.343 2.343 0 01-1.46-1.053l-7.722-12.517a2.356 2.356 0 01.766-3.236l2.685-1.656 10.192 16.517-2.684 1.658zm8.513 65.521c-.21.263-.524.413-.862.413H7.434c-.61 0-1.106-.496-1.106-1.105v-9.857a1.1 1.1 0 01.42-.868l28.787-22.724 25.945 30.436-2.978 3.705zm6.434-9.405l-22.758-26.699 3.37-2.836 22.588 26.844-3.2 2.691zm31.014-6.121c-1.931 1.169-3.744 1.375-6.766 1.335l-16.211-3.324a3.156 3.156 0 00-1.145-.024l-19.9-23.645 1.803-1.231.007-.004c.03-.021.06-.046.089-.067.068-.051.135-.102.198-.157l.09-.085c.065-.06.124-.121.182-.185l.069-.077a3.32 3.32 0 00.2-.264l.017-.023.015-.022.015-.024 16.733-25.202c.037-.055.071-.111.104-.167a10.355 10.355 0 013.494-3.596l9.46-5.866c.175-.109.353-.206.533-.297.08-.041.163-.076.244-.114.095-.042.19-.085.287-.123.11-.045.22-.086.334-.124.058-.021.117-.039.176-.058a7.75 7.75 0 01.419-.118h.002a6.68 6.68 0 011.542-.188h.033c.152 0 .302.007.452.016l.145.014c.133.011.265.026.397.046.077.011.156.028.236.043.2.038.4.085.596.143.076.021.153.041.228.064.1.035.197.073.296.112.078.03.157.06.233.093a5.8 5.8 0 01.788.408l.189.122c.094.063.188.125.278.195.056.041.109.085.162.128.094.074.186.149.275.229.432.389.81.837 1.12 1.343l.233.381 3.373 5.504 4.234 6.908 1.076 1.759c.102.166.186.339.25.519.198.54.229 1.13.089 1.714a3.25 3.25 0 01-1.488 2.02l-1.903 1.164-.002.001a3.302 3.302 0 01-.403.206c-.03.013-.06.027-.09.038a3.357 3.357 0 01-.415.139c-.016.005-.034.008-.05.011a3.413 3.413 0 01-.897.089l-.08-.005a3.355 3.355 0 01-.425-.054c-.001-.002-.003-.002-.004-.002a3.028 3.028 0 01-.439-.127l-.038-.013a2.97 2.97 0 01-.819-.473l-.001-.002a3.073 3.073 0 01-.368-.357 2.807 2.807 0 01-.269-.364l-3.154-5.157a8.367 8.367 0 00-5.248-3.793 8.646 8.646 0 00-6.606 1.084 3.169 3.169 0 00-1.468 2.261c-.036.27-.08.536-.128.798-.037.191-.078.38-.12.568-.014.063-.027.127-.042.19a13.888 13.888 0 01-.193.73 13.407 13.407 0 01-1.491 3.363c-.002.002-.002.003-.002.005-1.178 1.889-2.842 3.485-5.024 4.812a3.164 3.164 0 103.287 5.407 23.147 23.147 0 004.102-3.148l13.213 20.839c2.434 3.775 6.642 5.965 10.994 5.965.231 0 .461-.011.692-.024a10.404 10.404 0 001.559 2.168l-9.354 5.57zm2.685-23.262l.001.005c.053.148.11.293.172.44l.021.053c.055.131.114.262.175.392.015.028.026.059.041.089.058.122.122.242.185.362.02.037.036.073.056.107a10.33 10.33 0 00.774 1.212 11.689 11.689 0 00.557.687c.088.099.173.201.264.297.067.072.142.138.212.209.256.255.523.496.803.723.03.023.058.048.087.069.544.432 1.128.806 1.749 1.121a10.413 10.413 0 00-1.117 3.444c-2.087-.13-4.061-1.229-5.224-3.035l-14.547-22.941a20.37 20.37 0 001.546-4.463c.226-.013.453.007.677.059a2.091 2.091 0 011.314.94l3.154 5.156.015.022c.154.252.32.496.5.731.132.173.274.335.416.496.05.056.094.117.145.173l.021.084a10.924 10.924 0 00.48 1.564c.008.025.02.048.03.071a9.147 9.147 0 00.379.822c.118.231.242.459.377.683a10.372 10.372 0 006.358 4.677 10.396 10.396 0 00.379 5.751zm2.018-37.657l1.063-.65a4.094 4.094 0 013.112-.489 4.115 4.115 0 011.178 7.506l-1.056.646-3.128-5.103-1.169-1.91zm23.581 38.006a3.98 3.98 0 012.477 1.805 4.01 4.01 0 01-1.33 5.504l-10.45 6.387a3.967 3.967 0 01-2.775.524c-.054-.011-.11-.024-.166-.033-.028-.006-.058-.009-.086-.016a3.975 3.975 0 01-2.981-3.097c-.002-.013-.002-.024-.005-.036a4.028 4.028 0 011.061-3.551c.025-.025.048-.051.073-.074a4.252 4.252 0 01.693-.544l.009-.005 2.076-1.269c.366-.17.725-.356 1.075-.568l7.994-4.888a3.985 3.985 0 012.335-.139zm-7.279-13.869a4.086 4.086 0 012.736-.285 4.087 4.087 0 012.544 1.854 4.115 4.115 0 01-1.365 5.651l-1.881 1.15a10.5 10.5 0 00-1.083.575l-7.953 4.86a4.123 4.123 0 01-4.291-.807l-.002-.002a4.104 4.104 0 01-.254-.257l-.062-.076a3.673 3.673 0 01-.394-.534 4.398 4.398 0 01-.19-.349c-.018-.038-.033-.076-.051-.116a4.57 4.57 0 01-.104-.247c-.016-.044-.029-.087-.044-.132a4.386 4.386 0 01-.073-.24l-.033-.135a6.044 6.044 0 01-.049-.248l-.02-.128a3.784 3.784 0 01-.033-.381 3.902 3.902 0 010-.265c0-.04 0-.078.003-.116.004-.09.015-.179.025-.268.005-.038.007-.076.013-.114a4.104 4.104 0 011.363-2.485c.028-.025.053-.054.081-.079a2.36 2.36 0 01.119-.102c.098-.056.199-.107.296-.167l10.267-6.275c.148-.091.293-.185.435-.282zm-4.916-12.623a4.086 4.086 0 012.545 1.854 4.122 4.122 0 01-.991 5.394 8.96 8.96 0 00-.313.179l-7.927 4.845c.027-.02.051-.043.078-.064a8.83 8.83 0 00.445-.371c.089-.079.173-.163.259-.245.128-.126.257-.253.379-.386.084-.089.163-.183.242-.275a9.151 9.151 0 00.55-.709c.101-.143.196-.29.29-.44.065-.104.129-.206.188-.311.091-.159.173-.322.254-.485.051-.104.105-.204.152-.31.082-.183.154-.37.227-.56.033-.091.072-.18.104-.272.097-.285.184-.573.255-.868.068-.282.12-.566.162-.849.013-.091.019-.181.031-.272.023-.194.041-.387.053-.582.005-.105.006-.211.008-.316a8.867 8.867 0 00-.077-1.404c-.014-.101-.025-.201-.042-.3a7.98 7.98 0 00-.127-.607c-.016-.072-.029-.146-.047-.219a9.28 9.28 0 00-.253-.806c-.019-.051-.042-.102-.064-.154-.069-.178-.137-.358-.217-.533l.726-.445a4.09 4.09 0 013.11-.489zm75.237-31.959a1.005 1.005 0 01-.453.626l-3.785 2.337a1.013 1.013 0 01-1.391-.329l-39.853-64.59a3.164 3.164 0 10-5.383 3.322l34.153 55.353-73.528 16.007-19.474-31.563 47.285-58.537 3.82 6.193a3.164 3.164 0 105.385-3.324l-9.52-15.428a1.001 1.001 0 01-.123-.763c.036-.154.143-.437.453-.628l3.785-2.335a1.011 1.011 0 011.391.33l57.115 92.566c.191.31.159.612.123.763z" fill="#000"/></svg>