<svg width="24" height="24" fill="none" xmlns="http://www.w3.org/2000/svg"><path d="M5.173 24a5.144 5.144 0 003.659-1.514l4.324-4.32a1.136 1.136 0 00-1.605-1.607L7.225 20.88a2.897 2.897 0 01-4.87-2.064 2.89 2.89 0 01.778-2.023l4.319-4.314a1.144 1.144 0 00-1.617-1.618l-4.32 4.316A5.167 5.167 0 005.173 24zM18.85 0a5.144 5.144 0 00-3.66 1.514l-4.323 4.32a1.136 1.136 0 101.605 1.607l4.326-4.321a2.896 2.896 0 014.87 2.064 2.89 2.89 0 01-.779 2.023l-4.324 4.32a1.136 1.136 0 001.605 1.607l4.326-4.322A5.167 5.167 0 0018.85 0z" fill="#000"/></svg>