<svg width="19" height="19" fill="none" xmlns="http://www.w3.org/2000/svg"><path d="M17.33 2.264H1.67a1.65 1.65 0 00-.715.167l8.508 8.508 1.907-1.832 6.676-6.676a1.65 1.65 0 00-.716-.167zm1.503.955L12.55 9.5l6.281 6.282a1.65 1.65 0 00.168-.715V3.934a1.65 1.65 0 00-.167-.715zM.167 3.218A1.65 1.65 0 000 3.934v11.132c0 .257.063.498.167.716L6.45 9.5.167 3.218z" fill="#020202"/><path d="M11.764 10.287L9.856 12.12a.555.555 0 01-.787 0l-1.833-1.833L.954 16.57c.218.104.459.167.716.167h15.66c.257 0 .498-.063.715-.167l-6.281-6.282z" fill="#020202"/></svg>