<svg width="96" height="96" fill="none" xmlns="http://www.w3.org/2000/svg"><g clip-path="url(#clip0)" fill="#000"><path d="M51.012 96h-6.025c-4.873 0-8.837-3.965-8.837-8.837v-2.039a38.757 38.757 0 01-6.018-2.498l-1.445 1.445c-3.498 3.503-9.103 3.4-12.5-.002l-4.258-4.258c-3.403-3.399-3.5-9.001.001-12.5l1.444-1.443a38.75 38.75 0 01-2.498-6.018H8.837C3.965 59.85 0 55.885 0 51.013v-6.026c0-4.873 3.965-8.837 8.838-8.837h2.038a38.759 38.759 0 012.498-6.018l-1.445-1.445c-3.5-3.496-3.403-9.099.001-12.5l4.26-4.258c3.404-3.41 9.007-3.494 12.499.001l1.443 1.444c1.933-1 3.946-1.836 6.018-2.498V8.837C36.15 3.965 40.115 0 44.988 0h6.025c4.873 0 8.837 3.965 8.837 8.837v2.039a38.747 38.747 0 016.018 2.498l1.445-1.445c3.498-3.503 9.102-3.4 12.5.002l4.258 4.258c3.403 3.399 3.5 9.001-.001 12.5l-1.444 1.443a38.76 38.76 0 012.498 6.018h2.038c4.873 0 8.838 3.965 8.838 8.837v6.026c0 4.873-3.965 8.837-8.838 8.837h-2.038a38.769 38.769 0 01-2.498 6.018l1.445 1.445c3.5 3.496 3.403 9.099-.001 12.5l-4.26 4.258c-3.404 3.41-9.007 3.495-12.499-.001l-1.443-1.443a38.786 38.786 0 01-6.018 2.498v2.038c0 4.873-3.965 8.837-8.838 8.837zm-19.94-19.28a33.151 33.151 0 008.593 3.567 2.812 2.812 0 012.11 2.723v4.153a3.216 3.216 0 003.213 3.212h6.025a3.216 3.216 0 003.212-3.212V83.01c0-1.283.868-2.403 2.11-2.723a33.153 33.153 0 008.593-3.568 2.812 2.812 0 013.42.433l2.942 2.941a3.211 3.211 0 004.542.002l4.262-4.262a3.212 3.212 0 000-4.542l-2.942-2.943a2.813 2.813 0 01-.432-3.42 33.15 33.15 0 003.567-8.593 2.812 2.812 0 012.723-2.11h4.153a3.216 3.216 0 003.212-3.212v-6.025a3.216 3.216 0 00-3.212-3.213H83.01a2.812 2.812 0 01-2.723-2.11 33.153 33.153 0 00-3.567-8.593 2.813 2.813 0 01.432-3.42l2.942-2.942a3.211 3.211 0 000-4.542l-4.26-4.26a3.212 3.212 0 00-4.542-.002l-2.943 2.943a2.812 2.812 0 01-3.42.432 33.15 33.15 0 00-8.594-3.567 2.812 2.812 0 01-2.11-2.723V8.837a3.216 3.216 0 00-3.212-3.212h-6.025a3.216 3.216 0 00-3.213 3.212v4.153a2.812 2.812 0 01-2.11 2.723 33.155 33.155 0 00-8.593 3.568 2.813 2.813 0 01-3.42-.433l-2.942-2.941a3.211 3.211 0 00-4.542-.002l-4.261 4.262a3.212 3.212 0 00-.001 4.542l2.942 2.943a2.812 2.812 0 01.433 3.42 33.146 33.146 0 00-3.567 8.593 2.812 2.812 0 01-2.724 2.11H8.838a3.217 3.217 0 00-3.213 3.212v6.026a3.216 3.216 0 003.213 3.212h4.152c1.283 0 2.403.868 2.723 2.11a33.156 33.156 0 003.567 8.593 2.813 2.813 0 01-.432 3.42l-2.941 2.942a3.211 3.211 0 00-.002 4.542l4.261 4.261a3.212 3.212 0 004.543.001l2.942-2.943c.67-.668 2.061-1.236 3.42-.432z"/><path d="M48 68.888c-11.518 0-20.888-9.37-20.888-20.888 0-11.517 9.37-20.887 20.888-20.887 11.517 0 20.887 9.37 20.887 20.887 0 11.517-9.37 20.888-20.887 20.888zm0-36.15c-8.416 0-15.263 6.846-15.263 15.262S39.584 63.263 48 63.263 63.262 56.416 63.262 48 56.416 32.737 48 32.737z"/></g><defs><clipPath id="clip0"><path fill="#fff" d="M0 0h96v96H0z"/></clipPath></defs></svg>