<svg width="21" height="21" fill="none" xmlns="http://www.w3.org/2000/svg"><g clip-path="url(#clip0)"><path d="M17.923 3.074c-4.101-4.1-10.75-4.1-14.85.002-4.1 4.101-4.098 10.75.003 14.85s10.75 4.098 14.85-.003a10.5 10.5 0 00-.003-14.85zm-2.022 11.552l-.001.001v-.003l-.532.528a2.8 2.8 0 01-2.643.756 9.302 9.302 0 01-2.701-1.21 12.484 12.484 0 01-2.132-1.72 12.58 12.58 0 01-1.593-1.931 9.798 9.798 0 01-1.197-2.422 2.8 2.8 0 01.7-2.86l.623-.623a.444.444 0 01.63-.001v.001L9.022 7.11a.444.444 0 010 .63L7.867 8.894a.941.941 0 00-.098 1.225c.418.574.88 1.113 1.383 1.614a13.42 13.42 0 001.82 1.53.948.948 0 001.211-.106l1.117-1.134a.445.445 0 01.628-.001l.002.001 1.97 1.974a.444.444 0 01.001.629z" fill="#020202"/></g><defs><clipPath id="clip0"><path fill="#fff" d="M0 0h21v21H0z"/></clipPath></defs></svg>