<svg width="161" height="161" fill="none" xmlns="http://www.w3.org/2000/svg"><g clip-path="url(#clip0)" fill="#000"><path d="M72.44 105.143a3.15 3.15 0 000-4.45 3.15 3.15 0 00-4.45 0 3.15 3.15 0 000 4.45 3.15 3.15 0 004.45 0zm1.145-74.01v6.289c0 10.424 8.443 18.867 18.867 18.867 10.404 0 18.868-8.463 18.868-18.867v-6.29a3.145 3.145 0 100-6.288h-6.289a3.145 3.145 0 100 6.289v6.289c0 6.935-5.643 12.578-12.58 12.578-6.946 0-12.577-5.63-12.577-12.578v-6.29a3.144 3.144 0 100-6.288h-6.29a3.144 3.144 0 100 6.289z"/><path d="M36.545 154.378a3.134 3.134 0 002.222.919c.805 0 1.61-.307 2.224-.92l9.656-9.656a14.557 14.557 0 004.223-11.799l3.462-3.344a14.591 14.591 0 0110.17-4.108h41.403a28.138 28.138 0 0019.738-8.021c.079-.076.152-.156.222-.24l28.171-33.829c4.476-5.296 3.806-13.248-1.495-17.73-5.267-4.439-13.16-3.8-17.65 1.408l-3.042 3.147v-61.4a3.145 3.145 0 00-3.145-3.145H51.886a3.145 3.145 0 00-3.145 3.145v70.453c-12.177 2.556-21.836 10.116-27.038 21.166a14.518 14.518 0 00-11.072 4.268l-9.705 9.657a3.145 3.145 0 00-.004 4.454l35.623 35.575zM129.56 11.949v64.76l-9.1 9.408c-2.343-2.878-5.912-4.671-9.768-4.671h-36.46c-.2 0-.42-.047-.64-.135a40.635 40.635 0 00-15.415-3.01c-1.052 0-2.101.038-3.144.107V11.95h74.527zM52.337 85.004c6.361-.92 12.723-.38 18.893 2.135a8 8 0 003.002.597h36.459c3.41 0 6.289 2.781 6.289 6.29a6.296 6.296 0 01-6.289 6.288H83.332a3.145 3.145 0 000 6.289h27.359c6.936 0 12.578-5.643 12.578-12.578 0-.555-.04-1.107-.112-1.65.656-.673 19.664-20.33 20.322-21.013.048-.05.096-.102.14-.154 2.24-2.646 6.219-2.98 8.866-.75 2.65 2.24 2.985 6.216.732 8.881l-28.076 33.715a21.88 21.88 0 01-15.236 6.127H68.503a20.845 20.845 0 00-14.538 5.871l-1.386 1.338a14.693 14.693 0 00-1.931-2.379l-19.315-19.314a14.684 14.684 0 00-3.468-2.566c4.804-9.475 13.385-15.515 24.472-17.127zm-37.263 24.139c3.304-3.309 8.585-3.228 11.812.002l19.317 19.315c3.237 3.232 3.295 8.519-.002 11.812l-7.436 7.435-31.167-31.125 7.476-7.439z"/></g><defs><clipPath id="clip0"><path fill="#fff" d="M0 0h161v161H0z"/></clipPath></defs></svg>