<svg width="86" height="86" fill="none" xmlns="http://www.w3.org/2000/svg"><g clip-path="url(#clip0)"><path d="M79.1 56.45a48.83 48.83 0 01-15.335-2.443c-2.442-.833-5.223-.187-6.817 1.437l-9.67 7.3c-11.214-5.987-18.121-12.892-24.026-24.022l7.085-9.418c1.84-1.838 2.5-4.524 1.71-7.043A48.9 48.9 0 0129.595 6.9a6.909 6.909 0 00-6.9-6.9H6.9A6.909 6.909 0 000 6.9C0 50.518 35.483 86 79.1 86c3.804 0 6.9-3.096 6.9-6.9V63.35c0-3.805-3.096-6.9-6.9-6.9zm2.122 22.65a2.125 2.125 0 01-2.123 2.122c-40.982 0-74.321-33.34-74.321-74.321 0-1.171.952-2.123 2.123-2.123h15.794c1.17 0 2.122.952 2.122 2.123 0 5.778.908 11.45 2.683 16.823.247.793.047 1.614-.756 2.45l-8.211 10.875a2.39 2.39 0 00-.224 2.522c6.702 13.173 14.846 21.318 28.113 28.116a2.38 2.38 0 002.53-.22l11.125-8.428a2.108 2.108 0 012.165-.504 53.648 53.648 0 0016.857 2.692c1.171 0 2.123.952 2.123 2.123V79.1z" fill="#000"/></g><defs><clipPath id="clip0"><path fill="#fff" d="M0 0h86v86H0z"/></clipPath></defs></svg>