<svg width="1920" height="935" fill="none" xmlns="http://www.w3.org/2000/svg"><path fill="#FFAF36" d="M1673 797h247v138h-247zM170 70h1245v629H170zm1455-54h165v66h-165z"/><path fill="#FFAF36" d="M164 875h1592v60H164z"/><path fill="#2F2F2F" d="M1370 0h45v16h-45z"/><path fill="#FFAF36" d="M0 70h185v865H0zm1782-54h138v104h-138z"/><path fill="#FFAF36" d="M1891 16h29v789h-29zM582 16h833v63H582z"/><path fill="#2F2F2F" d="M1842 120h49v13h-49zm-44 0h-16v13h16z"/><path fill="#FFAF36" d="M1545 935h237V797h-237z"/></svg>