<svg width="115" height="97" fill="none" xmlns="http://www.w3.org/2000/svg"><path d="M12.99 38.32C5.53 38.32.23 33.101.145 25.957v1.467c0 7.249 5.322 12.55 12.864 12.55 6.474 0 11.335-3.919 12.55-9.638v-1.634c-1.236 5.698-6.118 9.616-12.57 9.616z" fill="#fff"/><path d="M12.99 36.685c-7.46 0-12.76-5.217-12.844-12.36V26c.105 7.144 5.385 12.36 12.843 12.36 6.474 0 11.335-3.917 12.55-9.637V27.09c-1.215 5.677-6.097 9.595-12.55 9.595z" fill="#fff"/><path d="M12.99 35.03C5.53 35.03.23 29.813.145 22.669v1.676C.25 31.489 5.53 36.706 12.988 36.706c6.474 0 11.335-3.918 12.55-9.637v-1.634c-1.215 5.677-6.097 9.595-12.55 9.595z" fill="#fff"/><path d="M12.99 33.396C5.53 33.396.23 28.18.145 21.036v1.676c.105 7.143 5.385 12.36 12.843 12.36 6.474 0 11.335-3.918 12.55-9.637V23.8c-1.215 5.677-6.097 9.595-12.55 9.595z" fill="#fff"/><path d="M12.99 31.762C5.53 31.762.23 26.545.145 19.4v1.677c.105 7.144 5.385 12.36 12.843 12.36 6.474 0 11.335-3.917 12.55-9.637v-1.634c-1.215 5.678-6.097 9.596-12.55 9.596z" fill="#fff"/><path d="M12.99 30.106C5.53 30.106.23 24.89.145 17.746v1.676c.105 7.143 5.385 12.36 12.843 12.36 6.474 0 11.335-3.918 12.55-9.637V20.51c-1.215 5.677-6.097 9.595-12.55 9.595z" fill="#fff"/><path d="M12.99 28.472c-7.46 0-12.76-5.216-12.844-12.36v1.676c.105 7.144 5.385 12.36 12.843 12.36 6.474 0 11.335-3.917 12.55-9.637v-1.613c-1.236 5.678-6.118 9.574-12.55 9.574z" fill="#fff"/><path d="M25.518 17.242c-1.236 5.7-6.097 9.575-12.55 9.575C5.51 26.817.21 21.6.125 14.457v1.676c.105 7.143 5.385 12.36 12.843 12.36 6.453 0 11.314-3.897 12.55-9.595v-.042c.021-.021.021-.817 0-1.614z" fill="#fff"/><path d="M25.518 16.195v-.398c-.628 2.744-2.116 5.07-4.274 6.767-2.263 1.76-5.112 2.682-8.276 2.682-1.843 0-3.603-.314-5.195-.943a12.092 12.092 0 01-4.086-2.619c-2.095-2.053-3.331-4.84-3.562-7.92v.776C.23 21.684 5.51 26.9 12.968 26.9c6.432 0 11.314-3.896 12.55-9.574 0-.02 0-.042.021-.042 0 0 0-.46-.02-.9v-.189z" fill="#fff"/><path d="M19.191 15.504v.02c-.042.105-.084.231-.147.336a6.38 6.38 0 01-.44.838 6.04 6.04 0 01-.628.817 4.86 4.86 0 01-.922.817 5.75 5.75 0 01-1.55.817 7.089 7.089 0 01-2.535.44c-.922 0-1.781-.146-2.556-.44a6.841 6.841 0 01-1.55-.817 6.636 6.636 0 01-.818-.712l-.105-.105a5.144 5.144 0 01-.628-.838 10.717 10.717 0 01-.461-.838A5.738 5.738 0 016.537 15a10.297 10.297 0 01-.21-.86 6.513 6.513 0 01-.126-.92c-.02-.19-.02-.399-.02-.608 0-1.97.649-3.75 1.843-5.008 1.236-1.299 2.933-1.97 4.903-1.97 2.891 0 5.217 1.53 6.201 4.065v.021h6.39l-.02-.042c-.608-2.849-2.096-5.258-4.338-6.997C18.898.922 16.05 0 12.885 0 11.04 0 9.28.314 7.689.943a12.092 12.092 0 00-4.085 2.619C1.278 5.845 0 9.05 0 12.592c0 .377.021.733.042 1.089.23 3.1 1.487 5.866 3.562 7.92a12.092 12.092 0 004.085 2.618c1.592.629 3.352.943 5.196.943 3.164 0 6.013-.922 8.275-2.682 2.158-1.676 3.646-4.022 4.274-6.767v-.042c.021-.063.021-.125.042-.188l.021-.042h-6.306v.063z" fill="#0D0E0F"/><path d="M46.585 38.12l-4.295-7.562h-2.535v1.633h2.535l4.295 7.564h7.082v-1.634h-7.082zm-12.822.42v1.215h5.992v-1.634h-5.992v.42zm0-1.656v1.237h5.992v-1.635h-5.992v.398z" fill="#fff"/><path d="M46.585 36.487l-4.295-7.585h-2.535v1.655h2.535l4.295 7.564h7.082v-1.634h-7.082zm-12.822-1.236v1.236h5.992v-1.655h-5.992v.42z" fill="#fff"/><path d="M46.585 34.832l-4.295-7.563h-2.535v1.633h2.535l4.295 7.585h7.082v-1.655h-7.082zm-12.822-1.215v1.215h5.992v-1.634h-5.992v.42z" fill="#fff"/><path d="M46.585 33.198l-4.295-7.563h-2.535v1.633h2.535l4.295 7.564h7.082v-1.634h-7.082zm-12.822-1.236v1.236h5.992v-1.634h-5.992v.398z" fill="#fff"/><path d="M46.585 31.564L42.29 23.98h-2.493v1.047h-.042v.607h2.535l4.295 7.564h7.082v-1.634h-7.082z" fill="#fff"/><path d="M46.586 29.908l-4.295-7.563h-2.494v1.634h2.494l4.295 7.584h7.08v-1.655h-7.08zm-12.823.419v1.236h5.992v-1.655h-5.992v.42z" fill="#fff"/><path d="M46.586 28.275L42.29 20.69h-2.494v1.656h2.494l4.295 7.563h7.08v-1.634h-7.08zm-12.823.397v1.237h5.992v-1.635h-5.992v.398z" fill="#fff"/><path d="M46.586 26.64l-4.295-7.584h-2.494v1.634h2.494l4.295 7.584h7.08V26.64h-7.08zm-12.823.398v1.236h5.992V26.64h-5.992v.398z" fill="#fff"/><path d="M33.763 25.404v1.237h5.992v-1.614h-5.992v.377zm12.802-.377l-4.295-7.563h-2.473v1.592h2.494l4.295 7.584h7.08v-1.613h-7.101z" fill="#fff"/><path d="M52.787 23.54l-.063-.105-.23-.357-.356-.544-.461-.713-.545-.838-.629-.963-.691-1.069-.754-1.152-.776-1.194v-.042c2.64-1.11 4.19-3.415 4.463-6.495.021-.314.042-.65.042-.985 0-2.493-.775-4.546-2.242-5.97-1.592-1.551-3.98-2.347-7.04-2.347H33.68v24.24h6.117v-7.542h2.473l4.294 7.563h7.209l-.985-1.488zm-6.16-13.703a2.733 2.733 0 01-.314.88 2.12 2.12 0 01-.272.336c-.21.21-.461.377-.755.502-.44.189-.984.273-1.655.273h-3.834V6.422h3.834c2.096 0 3.06.86 3.06 2.682 0 .272-.022.503-.064.733z" fill="#0D0E0F"/><path d="M68.877 89.118V87.59h-9.45v1.654h9.45v-.126zM53.603 94.88v1.215h5.824V94.46h-5.824v.42zm15.273-.42v1.635h5.992V94.46h-5.992z" fill="#fff"/><path d="M53.603 93.225v1.236h5.824v-1.634h-5.824v.398zm15.274-5.741v-1.529h-9.45v1.634h9.45v-.105zm-.001 5.343v1.634h5.992v-1.634h-5.992zm.001-6.977v-1.53h-9.45v1.635h9.45v-.105zm-.001 5.32v1.657h5.992v-1.656h-5.992zm-15.273.42v1.236h5.824v-1.655h-5.824v.419z" fill="#fff"/><path d="M68.877 84.195v-1.529h-9.45v1.655h9.45v-.126zm-15.274 5.762v1.215h5.824v-1.634h-5.824v.42zm15.273-.419v1.634h5.992v-1.634h-5.992zm0-1.635v1.634h5.992v-1.634h-5.992zm-15.273.398v1.237h5.824v-1.636h-5.824v.398zm15.274-5.741v-1.193h-.042v-.336H59.47v.335h-.042v1.3h9.449v-.104zm-.001 3.688v1.655h5.992v-1.655h-5.992zm-.041-6.872H59.47v1.634h9.365v-1.634z" fill="#fff"/><path d="M53.603 86.667v1.237h5.824v-1.657h-5.824v.42zm15.232-8.925H59.47v1.634h9.365v-1.634zm.041 6.872v1.634h5.992v-1.634h-5.992z" fill="#fff"/><path d="M53.603 85.033v1.215h5.824v-1.634h-5.824v.42z" fill="#fff"/><path d="M53.603 83.379v1.236h5.824V82.98h-5.824v.398zm15.232-7.271H59.47v1.635h9.365v-1.635zm.041 6.872v1.636h5.992V82.98h-5.992zm-.041-8.485H59.47v1.592h9.365v-1.592zm.041 6.872v1.613h5.992v-1.613h-5.992zm-15.273.293v1.32h5.824v-1.613h-5.824v.293z" fill="#fff"/><path d="M74.219 62.846c-.461-1.299-1.153-2.43-2.053-3.352-.922-.922-2.054-1.634-3.353-2.116-1.34-.482-2.89-.733-4.588-.733-1.697 0-3.226.25-4.567.733-1.3.482-2.43 1.194-3.331 2.116-.901.922-1.593 2.032-2.054 3.352-.46 1.299-.691 2.807-.691 4.442v14.079h5.929v-6.872h9.365v6.83h6.076v-14.08c-.042-1.592-.272-3.08-.733-4.399zm-5.385 5.175v1.236H59.49v-1.948c0-3.373 1.53-5.029 4.693-5.029 1.634 0 2.787.42 3.562 1.278.754.838 1.11 2.054 1.11 3.75v.713h-.02z" fill="#0D0E0F"/><path d="M27.599 94.398v1.216h17.85V93.98h-17.85v.418zm0-1.655v1.236h17.85v-1.634h-17.85v.398zm0-1.634v1.236h17.85v-1.656h-17.85v.42z" fill="#fff"/><path d="M27.599 89.475v1.215h17.85v-1.635h-17.85v.42z" fill="#fff"/><path d="M27.599 87.82v1.236h17.85v-1.635h-17.85v.399z" fill="#fff"/><path d="M27.599 86.186v1.236h17.85v-1.656h-17.85v.42z" fill="#fff"/><path d="M27.599 84.55v1.217h17.85v-1.636h-17.85v.42z" fill="#fff"/><path d="M27.599 82.896v1.237h17.85v-1.635h-17.85v.398z" fill="#fff"/><path d="M27.599 81.262v1.236h17.85v-1.613h-17.85v.377z" fill="#fff"/><path d="M33.632 63.873V62.28h11.859v-5.636H27.557v24.24H45.49V75.27H33.632v-4.232h9.7v-4.903h-9.7v-2.262z" fill="#0D0E0F"/><path d="M6.62 94.398v1.216h5.971V93.98h-5.97v.418zm0-1.655v1.236h5.971v-1.634h-5.97v.398zm0-1.634v1.236h5.971v-1.656h-5.97v.42z" fill="#fff"/><path d="M6.62 89.475v1.215h5.971v-1.635h-5.97v.42z" fill="#fff"/><path d="M6.62 87.82v1.236h5.971v-1.634h-5.97v.398z" fill="#fff"/><path d="M6.62 86.186v1.236h5.971v-1.655h-5.97v.419zm0-1.636v1.217h5.971v-1.635h-5.97v.42z" fill="#fff"/><path d="M6.62 82.896v1.237h5.971v-1.636h-5.97v.398z" fill="#fff"/><path d="M6.62 81.262v1.236h5.971v-1.613h-5.97v.377z" fill="#fff"/><path d="M0 56.645v5.635h6.579v18.605h6.054V62.28h6.621v-5.636H0z" fill="#0D0E0F"/><path d="M83.499 94.88v1.215h5.992V94.46h-5.992v.42zm12.341 0v1.215h5.971V94.46H95.84v.42zm12.34-.42v1.636h5.971V94.46h-5.971z" fill="#fff"/><path d="M83.499 93.225v1.237h5.992v-1.636h-5.992v.398zm24.681-.398v1.635h5.971v-1.636h-5.971zm-12.34.398v1.237h5.971v-1.636H95.84v.398z" fill="#fff"/><path d="M95.84 91.59v1.237h5.971v-1.655H95.84v.419zm12.34-.418v1.655h5.971v-1.655h-5.971zm-24.681.418v1.237h5.992v-1.655h-5.992v.419zm24.681-2.053v1.634h5.971v-1.634h-5.971zm-12.34.419v1.215h5.971v-1.634H95.84v.42zm-12.341 0v1.215h5.992v-1.634h-5.992v.42z" fill="#fff"/><path d="M83.499 88.301v1.237h5.992v-1.636h-5.992v.398zm24.681-.398v1.635h5.971v-1.636h-5.971zm-12.34.398v1.237h5.971v-1.636H95.84v.398z" fill="#fff"/><path d="M108.18 86.248v1.655h5.971v-1.655h-5.971zm-24.681.419v1.236h5.992v-1.655h-5.992v.42zm12.341 0v1.236h5.971v-1.655H95.84v.42zm12.34-2.053v1.634h5.971v-1.634h-5.971zm-12.34.419v1.215h5.971v-1.634H95.84v.42zm-12.341 0v1.215h5.992v-1.634h-5.992v.42zm0-1.655v1.236h5.992V82.98h-5.992v.398zm24.681-.398v1.634h5.971V82.98h-5.971zm-12.34.398v1.236h5.971V82.98H95.84v.398zm-12.341-1.635v1.236h5.992v-1.613h-5.992v.377zm12.341 0v1.236h5.971v-1.613H95.84v.377zm12.34-.377v1.613h5.971v-1.613h-5.971z" fill="#fff"/><path d="M113.521 61.84a7.945 7.945 0 00-1.844-2.933c-1.508-1.487-3.645-2.262-6.18-2.262-2.954 0-5.259 1.13-6.662 3.289h-.021a6.938 6.938 0 00-2.766-2.451c-1.131-.566-2.451-.838-3.918-.838-2.535 0-4.672.775-6.18 2.262a7.954 7.954 0 00-1.844 2.933c-.44 1.215-.67 2.62-.67 4.212v15.336h6.075V66.073c0-1.32.294-2.305.901-2.934.524-.544 1.278-.838 2.242-.838 1.425 0 3.143.65 3.143 3.772v15.272h6.075V66.053c0-3.101 1.697-3.772 3.143-3.772.964 0 1.718.273 2.242.838.586.629.901 1.614.901 2.934v15.272h6.075V65.989c-.041-1.53-.272-2.934-.712-4.149z" fill="#0D0E0F"/></svg>