<svg width="90" height="76" fill="none" xmlns="http://www.w3.org/2000/svg"><path d="M10.146 29.933C4.32 29.933.18 25.858.114 20.277v1.146c0 5.663 4.157 9.803 10.049 9.803 5.057 0 8.854-3.06 9.803-7.528V22.42c-.966 4.452-4.779 7.512-9.82 7.512z" fill="#fff"/><path d="M10.146 28.657C4.32 28.657.18 24.582.114 19v1.31c.082 5.581 4.206 9.656 10.033 9.656 5.057 0 8.853-3.06 9.803-7.528V21.16c-.95 4.435-4.763 7.496-9.803 7.496z" fill="#fff"/><path d="M10.146 27.364C4.32 27.364.18 23.289.114 17.708v1.309c.082 5.581 4.206 9.656 10.033 9.656 5.057 0 8.853-3.06 9.803-7.528v-1.277c-.95 4.436-4.763 7.496-9.803 7.496z" fill="#fff"/><path d="M10.146 26.087C4.32 26.087.18 22.012.114 16.432v1.309c.082 5.58 4.206 9.656 10.033 9.656 5.057 0 8.853-3.06 9.803-7.528v-1.277c-.95 4.435-4.763 7.495-9.803 7.495z" fill="#fff"/><path d="M10.146 24.81C4.32 24.81.18 20.735.114 15.154v1.31c.082 5.58 4.206 9.655 10.033 9.655 5.057 0 8.853-3.06 9.803-7.528v-1.276c-.95 4.435-4.763 7.495-9.803 7.495z" fill="#fff"/><path d="M10.146 23.517C4.32 23.517.18 19.442.114 13.861v1.31c.082 5.58 4.206 9.655 10.033 9.655 5.057 0 8.853-3.06 9.803-7.528v-1.276c-.95 4.435-4.763 7.495-9.803 7.495z" fill="#fff"/><path d="M10.146 22.24C4.32 22.24.18 18.167.114 12.586v1.308c.082 5.581 4.206 9.656 10.033 9.656 5.057 0 8.853-3.06 9.803-7.528v-1.26c-.966 4.435-4.78 7.479-9.803 7.479z" fill="#fff"/><path d="M19.934 13.47c-.966 4.451-4.763 7.479-9.804 7.479-5.826 0-9.966-4.075-10.032-9.656v1.309c.082 5.581 4.206 9.656 10.032 9.656 5.041 0 8.838-3.044 9.804-7.495v-.033c.016-.017.016-.639 0-1.26z" fill="#fff"/><path d="M19.934 12.65v-.31a9.275 9.275 0 01-3.34 5.286C14.828 19 12.603 19.72 10.13 19.72c-1.44 0-2.815-.245-4.058-.736a9.445 9.445 0 01-3.192-2.046C1.244 15.334.278 13.158.098 10.752v.605c.082 5.581 4.206 9.656 10.032 9.656 5.025 0 8.838-3.044 9.804-7.479 0-.016 0-.033.016-.033 0 0 0-.36-.016-.703v-.148z" fill="#fff"/><path d="M14.991 12.11v.017c-.033.082-.065.18-.114.262-.099.23-.213.442-.344.655a4.74 4.74 0 01-.491.638 3.798 3.798 0 01-.72.638c-.36.262-.77.491-1.211.638a5.53 5.53 0 01-1.98.344c-.72 0-1.392-.114-1.997-.344a5.343 5.343 0 01-1.211-.638 5.178 5.178 0 01-.639-.556l-.081-.082a4.02 4.02 0 01-.491-.655 8.366 8.366 0 01-.36-.654 4.485 4.485 0 01-.246-.655c-.065-.213-.114-.442-.164-.671a5.09 5.09 0 01-.098-.72c-.016-.147-.016-.311-.016-.475 0-1.538.507-2.93 1.44-3.911.966-1.015 2.291-1.539 3.83-1.539 2.258 0 4.075 1.195 4.844 3.175v.017h4.992l-.017-.033c-.474-2.226-1.636-4.108-3.388-5.466C14.762.72 12.536 0 10.065 0 8.625 0 7.25.245 6.006.736a9.446 9.446 0 00-3.191 2.046C.998 4.566 0 7.07 0 9.836c0 .294.016.573.033.85.18 2.423 1.162 4.583 2.782 6.187.9.884 1.98 1.571 3.191 2.046 1.244.49 2.619.736 4.059.736 2.471 0 4.697-.72 6.464-2.094 1.686-1.31 2.848-3.143 3.34-5.287v-.032c.015-.05.015-.099.032-.148l.016-.032h-4.926v.049z" fill="#0D0E0F"/><path d="M36.39 29.778l-3.355-5.908h-1.98v1.276h1.98l3.355 5.909h5.532v-1.277H36.39zm-10.016.328v.948h4.68v-1.276h-4.68v.328zm0-1.294v.966h4.68V28.5h-4.68v.31z" fill="#fff"/><path d="M36.39 28.502l-3.355-5.925h-1.98v1.293h1.98l3.355 5.908h5.532v-1.276H36.39zm-10.016-.966v.966h4.68v-1.293h-4.68v.327z" fill="#fff"/><path d="M36.39 27.209L33.035 21.3h-1.98v1.277h1.98l3.355 5.925h5.532v-1.293H36.39zm-10.016-.949v.95h4.68v-1.276h-4.68v.327z" fill="#fff"/><path d="M36.39 25.933l-3.355-5.908h-1.98v1.276h1.98l3.355 5.909h5.532v-1.277H36.39zm-10.016-.967v.966h4.68v-1.276h-4.68v.31z" fill="#fff"/><path d="M36.39 24.656l-3.355-5.925h-1.948v.819h-.032v.474h1.98l3.355 5.908h5.532v-1.276H36.39z" fill="#fff"/><path d="M36.39 23.363l-3.355-5.908h-1.948v1.277h1.948l3.355 5.924h5.532v-1.293H36.39zm-10.016.327v.966h4.68v-1.293h-4.68v.328z" fill="#fff"/><path d="M36.39 22.087l-3.355-5.925h-1.948v1.293h1.948l3.355 5.908h5.532v-1.276H36.39zm-10.016.31v.965h4.68v-1.276h-4.68v.31z" fill="#fff"/><path d="M36.39 20.81l-3.355-5.925h-1.948v1.276h1.948l3.355 5.925h5.532v-1.277H36.39zm-10.016.31v.964h4.68V20.81h-4.68v.31z" fill="#fff"/><path d="M26.374 19.844v.966h4.68v-1.26h-4.68v.294zm10-.294l-3.355-5.908h-1.931v1.243h1.947l3.355 5.925h5.532v-1.26h-5.548z" fill="#fff"/><path d="M41.235 18.387l-.05-.082-.18-.278-.278-.425-.36-.557-.425-.654-.491-.753-.54-.835-.59-.9-.605-.933v-.033c2.062-.867 3.273-2.667 3.486-5.073.016-.245.033-.507.033-.77 0-1.947-.606-3.55-1.751-4.663-1.244-1.211-3.11-1.833-5.5-1.833H26.31v18.935h4.778v-5.892h1.931l3.355 5.908h5.63l-.77-1.162zM36.423 7.684c-.049.262-.13.491-.245.687a1.65 1.65 0 01-.213.262c-.164.164-.36.295-.59.393-.343.147-.768.213-1.292.213h-2.995V5.016h2.995c1.636 0 2.39.671 2.39 2.095 0 .213-.017.393-.05.573z" fill="#0D0E0F"/><path d="M53.803 69.614v-1.195h-7.381v1.293h7.38v-.098zm-11.931 4.5v.949h4.55v-1.276h-4.55v.327zm11.931-.327v1.276h4.68v-1.276h-4.68z" fill="#fff"/><path d="M41.872 72.824v.965h4.55v-1.276h-4.55v.31zm11.931-4.484v-1.196h-7.381v1.277h7.38v-.082zm0 4.173v1.276h4.68v-1.276h-4.68zm0-5.451v-1.195h-7.381v1.277h7.38v-.082zm0 4.156v1.292h4.68v-1.293h-4.68zm-11.931.327v.966h4.55v-1.293h-4.55v.327z" fill="#fff"/><path d="M53.803 65.769v-1.195h-7.381v1.294h7.38v-.1zM41.872 70.27v.948h4.55v-1.276h-4.55v.328zm11.931-.328v1.276h4.68v-1.276h-4.68zm0-1.277v1.277h4.68v-1.277h-4.68zm-11.931.311v.966h4.55v-1.277h-4.55v.311zm11.931-4.484v-.933h-.033v-.262h-7.315v.262h-.033v1.014h7.38v-.081z" fill="#fff"/><path d="M53.803 67.373v1.293h4.68v-1.293h-4.68zm-.033-5.368h-7.315v1.276h7.315v-1.276zM41.872 67.7v.966h4.55v-1.293h-4.55v.327zm11.898-6.972h-7.315v1.277h7.315v-1.277z" fill="#fff"/><path d="M53.803 66.097v1.277h4.68v-1.277h-4.68zm-11.931.327v.949h4.55v-1.276h-4.55v.327zm0-1.293v.966h4.55V64.82h-4.55v.31zm11.898-5.679h-7.315v1.277h7.315v-1.277zm.033 5.368v1.277h4.68V64.82h-4.68zm-.033-6.628h-7.315v1.244h7.315v-1.244z" fill="#fff"/><path d="M53.803 63.56v1.262h4.68V63.56h-4.68zm-11.931.23v1.03h4.55v-1.26h-4.55v.23z" fill="#fff"/><path d="M57.976 49.092c-.36-1.014-.9-1.898-1.604-2.618a7.219 7.219 0 00-2.619-1.653c-1.047-.377-2.258-.573-3.584-.573-1.325 0-2.52.196-3.567.573-1.015.376-1.899.933-2.603 1.653a6.984 6.984 0 00-1.604 2.618c-.36 1.015-.54 2.193-.54 3.47V63.56h4.632v-5.368h7.316v5.335h4.746V52.529c-.033-1.244-.213-2.406-.573-3.437zm-4.206 4.043v.965h-7.3v-1.522c0-2.635 1.194-3.928 3.666-3.928 1.276 0 2.176.328 2.782.999.589.654.867 1.604.867 2.93v.556h-.016z" fill="#0D0E0F"/><path d="M21.559 73.74v.948h13.943v-1.276H21.56v.327zm0-1.294v.964h13.943v-1.276H21.56v.31zm0-1.276v.964h13.943v-1.293H21.56v.327z" fill="#fff"/><path d="M21.559 69.893v.949h13.943v-1.277H21.56v.328z" fill="#fff"/><path d="M21.559 68.6v.966h13.943v-1.277H21.56v.311z" fill="#fff"/><path d="M21.559 67.324v.966h13.943v-1.293H21.56v.327zm0-1.277v.949h13.943V65.72H21.56v.327zm0-1.293v.966h13.943v-1.277H21.56v.311zm0-1.277v.966h13.943v-1.26H21.56v.294z" fill="#fff"/><path d="M26.272 49.894v-1.243h9.263v-4.403h-14.01v18.935h14.01v-4.386h-9.263v-3.306h7.577v-3.829h-7.577v-1.768z" fill="#0D0E0F"/><path d="M5.171 73.74v.948h4.665v-1.276H5.17v.327zm0-1.294v.964h4.665v-1.276H5.17v.31zm0-1.276v.964h4.665v-1.293H5.17v.327z" fill="#fff"/><path d="M5.171 69.893v.949h4.665v-1.277H5.17v.328z" fill="#fff"/><path d="M5.171 68.6v.966h4.665V68.29H5.17v.31zm0-1.276v.966h4.665v-1.293H5.17v.327zm0-1.277v.949h4.665V65.72H5.17v.327zm0-1.293v.966h4.665v-1.276H5.17v.31zm0-1.277v.966h4.665v-1.26H5.17v.294z" fill="#fff"/><path d="M0 44.248v4.403h5.139v14.532h4.73V48.651h5.171v-4.403H0z" fill="#0D0E0F"/><path d="M65.225 74.115v.949h4.68v-1.276h-4.68v.327zm9.64 0v.949h4.665v-1.276h-4.665v.327zm9.64-.327v1.276h4.664v-1.276h-4.664zm-19.28-.965v.965h4.68v-1.276h-4.68v.31zm19.28-.311v1.276h4.664v-1.276h-4.664zm-9.64.311v.965h4.665v-1.276h-4.665v.31zm0-1.278v.966h4.665v-1.293h-4.665v.327zm9.64-.327v1.292h4.664v-1.293h-4.664zm-19.28.327v.966h4.68v-1.293h-4.68v.327z" fill="#fff"/><path d="M84.505 69.942v1.276h4.664v-1.276h-4.664zm-9.64.328v.948h4.665v-1.276h-4.665v.328zm-9.64 0v.948h4.68v-1.276h-4.68v.328zm0-1.294v.966h4.68v-1.277h-4.68v.311zm19.28-.311v1.277h4.664v-1.277h-4.664zm-9.64.311v.966h4.665v-1.277h-4.665v.311z" fill="#fff"/><path d="M84.505 67.373v1.293h4.664v-1.293h-4.664zm-19.28.327v.966h4.68v-1.293h-4.68v.327zm9.64 0v.966h4.665v-1.293h-4.665v.327zm9.64-1.604v1.276h4.664v-1.276h-4.664zm-9.64.327v.949h4.665v-1.276h-4.665v.327zm-9.64 0v.949h4.68v-1.276h-4.68v.327zm0-1.293v.964h4.68v-1.276h-4.68v.31zm19.28-.312v1.277h4.664v-1.276h-4.664zm-9.639.312v.964h4.664v-1.276h-4.664v.31z" fill="#fff"/><path d="M65.225 63.855v.966h4.68V63.56h-4.68v.295zm9.64-.002v.966h4.665v-1.26h-4.665v.294zm9.64-.294v1.26h4.664v-1.26h-4.664z" fill="#fff"/><path d="M88.677 48.307a6.214 6.214 0 00-1.44-2.291c-1.179-1.162-2.848-1.768-4.828-1.768-2.308 0-4.108.884-5.205 2.57h-.016a5.42 5.42 0 00-2.16-1.915c-.884-.442-1.915-.655-3.06-.655-1.981 0-3.65.606-4.829 1.768a6.214 6.214 0 00-1.44 2.29c-.344.95-.524 2.047-.524 3.29v11.98h4.746V51.613c0-1.031.23-1.8.704-2.291.41-.426.998-.655 1.751-.655 1.113 0 2.455.507 2.455 2.946v11.93h4.746V51.597c0-2.423 1.326-2.947 2.455-2.947.753 0 1.342.213 1.751.655.459.491.704 1.26.704 2.291v11.931h4.746v-11.98c-.033-1.194-.213-2.291-.556-3.24z" fill="#0D0E0F"/></svg>