<svg width="1920" height="988" fill="none" xmlns="http://www.w3.org/2000/svg"><path d="M1265.1 811.932c.94.495 1.4 1.269 1.4 2.324 0 .877-.33 1.587-.99 2.128-.66.541-1.52.812-2.56.812-1.82 0-3.04-.77-3.66-2.31l1.67-.938c.3.952.96 1.428 1.99 1.428.53 0 .94-.112 1.22-.336.28-.224.42-.527.42-.91s-.14-.686-.42-.91c-.27-.224-.67-.336-1.18-.336h-1.22v-1.722h.93c.48 0 .86-.103 1.13-.308.27-.215.41-.504.41-.868s-.12-.649-.35-.854c-.24-.215-.58-.322-1.04-.322-.84 0-1.43.411-1.76 1.232l-1.64-.952c.66-1.391 1.79-2.086 3.4-2.086.97 0 1.76.261 2.38.784.62.523.92 1.213.92 2.072 0 .877-.35 1.568-1.05 2.072zm8.96 5.068l-.59-1.764h-3.91l-.58 1.764h-2.09l3.43-9.8h2.39l3.45 9.8h-2.1zm-3.88-3.57h2.69l-1.35-4.004-1.34 4.004zm14.25-6.23v9.8h-1.93v-7.952h-3.46V817h-1.93v-9.8h7.32zm10.07 8.526c-.99.98-2.19 1.47-3.61 1.47s-2.62-.49-3.61-1.47c-.98-.989-1.47-2.198-1.47-3.626s.49-2.632 1.47-3.612c.99-.989 2.19-1.484 3.61-1.484s2.62.495 3.61 1.484c.99.98 1.49 2.184 1.49 3.612s-.5 2.637-1.49 3.626zm-5.86-1.316c.6.597 1.35.896 2.25.896.9 0 1.65-.299 2.25-.896.61-.607.91-1.377.91-2.31s-.3-1.703-.91-2.31c-.6-.607-1.35-.91-2.25-.91-.9 0-1.65.303-2.25.91-.61.607-.91 1.377-.91 2.31s.3 1.703.91 2.31zm7.39 2.59v-1.792c.58.084 1.01-.033 1.3-.35.29-.317.43-.938.43-1.862V807.2h6.67v9.8h-1.92v-7.952h-2.83v3.892c0 .849-.1 1.563-.31 2.142-.2.579-.49 1.008-.85 1.288s-.74.467-1.15.56c-.4.093-.85.117-1.34.07zm15.79-9.8h1.91v9.8h-1.91v-4.06h-3.64V817h-1.94v-9.8h1.94v3.892h3.64V807.2zm9.4 9.8v-5.978l-4.2 5.978h-1.47v-9.8h1.94v5.992l4.2-5.992h1.47v9.8h-1.94zm10.24-9.8v1.848h-2.65V817h-1.93v-7.952h-2.63V807.2h7.21zm4.73 3.22c.94 0 1.74.317 2.38.952.64.635.96 1.414.96 2.338 0 .924-.32 1.703-.96 2.338-.64.635-1.44.952-2.38.952h-3.65v-9.8h1.93v3.22h1.72zm0 4.774c.41 0 .75-.14 1.02-.42.27-.28.41-.635.41-1.064 0-.42-.14-.77-.41-1.05a1.337 1.337 0 00-1.02-.434h-1.72v2.968h1.72zm11.85-4.284c.96 0 1.74.285 2.34.854.61.56.91 1.288.91 2.184 0 .905-.3 1.643-.91 2.212-.6.56-1.38.84-2.34.84h-3.75v-9.8h6.16v1.848h-4.23v1.862h1.82zm0 4.284c.39 0 .7-.107.96-.322.25-.224.37-.532.37-.924s-.12-.695-.37-.91c-.26-.215-.57-.322-.96-.322h-1.82v2.478h1.82zm8.1-7.994c.94 0 1.73.317 2.38.952.64.635.96 1.414.96 2.338 0 .924-.32 1.703-.96 2.338-.65.635-1.44.952-2.38.952h-1.73V817h-1.93v-9.8h3.66zm0 4.774c.41 0 .75-.14 1.02-.42.27-.289.4-.644.4-1.064 0-.429-.13-.784-.4-1.064s-.61-.42-1.02-.42h-1.73v2.968h1.73zm10.27 5.026v-5.978l-4.2 5.978h-1.47v-9.8h1.93v5.992l4.2-5.992h1.47v9.8h-1.93zm12.78-7.63c.81.7 1.22 1.61 1.22 2.73 0 1.12-.41 2.03-1.22 2.73-.81.7-1.9 1.115-3.26 1.246v1.134h-1.89v-1.134c-1.37-.14-2.46-.555-3.26-1.246-.81-.7-1.21-1.61-1.21-2.73 0-1.12.4-2.025 1.21-2.716.8-.7 1.89-1.12 3.26-1.26v-1.134h1.89v1.134c1.36.131 2.45.546 3.26 1.246zm-3.26 4.942c1.7-.196 2.55-.933 2.55-2.212 0-1.288-.85-2.03-2.55-2.226v4.438zm-4.44-2.212c0 1.279.85 2.011 2.55 2.198v-4.41c-1.7.187-2.55.924-2.55 2.212z" fill="#fff"/><path fill="#FFAF36" d="M363 3h566v510H363zm144 591h921v-81H507zm1023 394h390V788h-390zM255 727h145v-74H255zm374-89h799v-44H629z"/><path fill="#FFAF36" d="M1775 792h145V638h-145zm-107-607h253V40h-253zM135 145h253V0H135zM0 986h255V513H0z"/><path fill="#2F2F2F" d="M1431 97h182v16h-182zm-135 0h58v16h-58zm-448 88h41v10h-41zm-10 0h-10v10h10zm-410 0h29v10h-29zm-64 0h12v10h-12zm-67 0h12v10h-12zm1194 791h58v12h-58zm-35-398h314v16h-314zM129 970H0v16h129zm898.83-883l-19.828 49.755 4.98 1.984 19.827-49.755zm30.43 0l-19.828 49.755 4.98 1.984 19.827-49.755zM347 947h-56v16h56z"/></svg>