<svg width="1920" height="2753" fill="none" xmlns="http://www.w3.org/2000/svg"><path d="M0 1439h80v310H0v-310zm1760-770h160v480h-160V669z" fill="#FFAF36"/><path d="M1857 669h63v863h-63V669z" fill="#FFAF36"/><path d="M1584 1522h336v227h-336v-227z" fill="#FFAF36"/><path d="M1671.83 749L1652 798.755l4.98 1.984 19.83-49.755-4.98-1.984zm30.43 0l-19.83 49.755 4.98 1.984 19.83-49.755-4.98-1.984z" fill="#2F2F2F"/><path d="M0 0h80v741H0V0z" fill="#FFAF36"/><path d="M1813 675h106v16h-106v-16z" fill="#2F2F2F"/><path d="M1557 517h117v159h-117V517z" fill="#FFAF36"/><path d="M1669 340h251v335h-251V340zM55 0h338v187H55V0z" fill="#FFAF36"/><path d="M145 187h171v16H145v-16zm248 0h-37v16h37v-16z" fill="#2F2F2F"/><path d="M0 440h181v300H0V440zm0 1430h80v883H0v-883zm1360-137h560v137h-560v-137z" fill="#FFAF36"/><path d="M0 1733h427v150H0v-150zm1857 67h63v850h-63v-850z" fill="#FFAF36"/><path d="M1600 2533h320v220h-320v-220zm2-675h301v115h-301v-115z" fill="#FFAF36"/><path d="M147.828 1921L128 1970.76l4.98 1.98 19.827-49.76-4.979-1.98zm30.43 0l-19.828 49.76 4.98 1.98 19.827-49.76-4.979-1.98z" fill="#2F2F2F"/></svg>